<?xml version="1.0" encoding="UTF-8"?>
<!DOCTYPE svg PUBLIC "-//W3C//DTD SVG 1.0//EN" "http://www.w3.org/TR/2001/REC-SVG-20010904/DTD/svg10.dtd">
<!-- Creator: CorelDRAW X8 -->
<svg xmlns="http://www.w3.org/2000/svg" xml:space="preserve" width="100%" height="100%" version="1.0" style="shape-rendering:geometricPrecision; text-rendering:geometricPrecision; image-rendering:optimizeQuality; fill-rule:evenodd; clip-rule:evenodd"
viewBox="0 0 794822 366840"
 xmlns:xlink="http://www.w3.org/1999/xlink">
 <defs>
  <style type="text/css">
   <![CDATA[
    .fil1 {fill:white}
    .fil0 {fill:white;fill-rule:nonzero}
   ]]>
  </style>
 </defs>
 <g id="Слой_x0020_1">
  <metadata id="CorelCorpID_0Corel-Layer"/>
  <g id="_2114063660608">
   <path class="fil0" d="M218282 264248l7080 0c3388,0 6073,-754 8019,-2245 1946,-1507 2918,-3556 2918,-6178 0,-2561 -955,-4535 -2851,-5936 -1896,-1402 -4596,-2095 -8086,-2095l-7080 0 0 16454zm0 -27121l5654 0c3338,0 5939,-663 7834,-1974 1879,-1311 2819,-3164 2819,-5544 0,-2396 -889,-4144 -2684,-5259 -1778,-1130 -4563,-1687 -8372,-1687l-5251 0 0 14464zm-15500 38692l0 -64005 22027 0c8304,0 14561,1356 18806,4084 4244,2727 6374,6765 6374,12128 0,3270 -973,6042 -2902,8317 -1946,2291 -4865,4053 -8775,5319 4346,889 7734,2697 10201,5454 2466,2758 3691,6118 3691,10080 0,6148 -2533,10788 -7600,13922 -5067,3134 -12566,4701 -22496,4701l-19326 0z"/>
   <path id="1" class="fil0" d="M280571 211814l0 35167c0,5650 1158,9884 3473,12686 2298,2818 5805,4219 10502,4219 4513,0 7969,-1311 10334,-3933 2381,-2606 3573,-6418 3573,-11420l0 -36719 15199 0 0 36719c0,9236 -2634,16453 -7919,21621 -5267,5168 -12598,7744 -21975,7744 -9479,0 -16844,-2561 -22112,-7684 -5251,-5123 -7884,-12325 -7884,-21591l0 -36809 16809 0z"/>
   <path id="2" class="fil0" d="M336050 257739c4378,2410 8103,4083 11172,5062 3054,964 6039,1447 8959,1447 2936,0 5301,-588 7096,-1748 1779,-1160 2667,-2652 2667,-4475 0,-2607 -3171,-5560 -9528,-8814 -1023,-528 -1812,-950 -2365,-1236l-4816 -2441c-4679,-2380 -8152,-5077 -10400,-8076 -2265,-2998 -3389,-6403 -3389,-10200 0,-5153 2164,-9372 6492,-12671 4311,-3300 9898,-4942 16742,-4942 2534,0 5268,271 8204,798 2953,528 6224,1356 9831,2471l0 14992c-3440,-1929 -6694,-3420 -9781,-4475 -3086,-1055 -5704,-1582 -7867,-1582 -2400,0 -4278,467 -5654,1386 -1375,919 -2063,2185 -2063,3767 0,1115 402,2154 1224,3119 822,979 2047,1853 3690,2652l8355 4143c6996,3480 11693,6690 14109,9628 2416,2953 3624,6433 3624,10471 0,6238 -2366,11286 -7097,15128 -4748,3842 -11022,5755 -18856,5755 -2651,0 -5536,-256 -8657,-753 -3103,-497 -6542,-1281 -10267,-2335l-1425 -17071z"/>
   <path id="3" class="fil0" d="M388877 275819l14796 -66084 1225 0 26892 41675 25365 -41675 1275 0 14898 66084 -16173 0 -6039 -29230 -19125 31580 -1140 0 -20534 -32017 -6258 29667 -15182 0z"/>
   <path id="4" class="fil0" d="M499178 255479l18722 0 -9243 -20040 -9479 20040zm-26673 20340l36353 -65993 1074 0 35548 65993 -17799 0 -4513 -9311 -28921 0 -4614 9311 -17128 0z"/>
   <path id="5" class="fil0" d="M570124 223476l-2802 0 0 17719 3591 0c4294,0 7566,-783 9830,-2335 2265,-1552 3389,-3797 3389,-6705 0,-3059 -1091,-5259 -3289,-6630 -2196,-1371 -5770,-2049 -10719,-2049zm-19309 52343l0 -64005 18320 0c5871,0 10417,347 13655,1040 3238,693 6090,1838 8590,3465 2650,1703 4713,3812 6173,6329 1459,2516 2181,5168 2181,7955 0,4038 -1141,7564 -3423,10592 -2281,3029 -5569,5394 -9864,7112l21742 27512 -19427 0 -19024 -25132 -2416 0 0 25132 -16507 0z"/>
   <path id="6" class="fil0" d="M614950 275819l0 -64005 16809 0 0 27859 23537 -27859 20249 0 -26876 30451 28989 33554 -20534 0 -25365 -29486 0 29486 -16809 0z"/>
   <path id="7" class="fil0" d="M683514 275819l0 -64005 43885 0 0 13199 -27379 0 0 11572 23453 0 0 13108 -23453 0 0 12656 27781 0 0 13470 -44287 0z"/>
   <path id="8" class="fil0" d="M755264 275819l0 -50625 -22647 0 0 -13380 62205 0 0 13380 -22547 0 0 50625 -17011 0z"/>
   <path class="fil0" d="M677449 308913l0 14074c-1943,975 -3838,1704 -5678,2195 -1847,497 -3632,743 -5364,743 -4409,0 -8063,-1452 -10973,-4362 -2910,-2911 -4362,-6584 -4362,-11015 0,-4477 1472,-8178 4423,-11102 2952,-2931 6680,-4396 11199,-4396 1704,0 3326,231 4873,702 1540,463 3026,1172 4450,2112l-742 7246c-1343,-1357 -2679,-2352 -4008,-2979 -1336,-634 -2733,-947 -4199,-947 -2596,0 -4743,865 -6447,2603 -1704,1738 -2556,3912 -2556,6516 0,2747 825,4982 2467,6720 1643,1738 3762,2604 6352,2604 600,0 1207,-55 1820,-157 614,-109 1247,-259 1915,-463l0 -4206 -5479 0 0 -5888 12309 0z"/>
   <path id="1" class="fil0" d="M691025 301306l-1138 0 0 8016 1459 0c1744,0 3073,-355 3994,-1057 920,-702 1376,-1717 1376,-3033 0,-1383 -443,-2378 -1336,-2999 -892,-620 -2344,-927 -4355,-927zm-7845 23678l0 -28953 7443 0c2386,0 4233,157 5548,470 1315,314 2474,832 3490,1568 1077,770 1915,1724 2508,2863 593,1138 886,2337 886,3598 0,1827 -464,3422 -1390,4792 -927,1370 -2263,2440 -4008,3217l8833 12445 -7893 0 -7729 -11369 -981 0 0 11369 -6707 0z"/>
   <path id="2" class="fil0" d="M714553 310508c0,2515 736,4627 2208,6324 1472,1698 3285,2550 5439,2550 2167,0 3987,-846 5452,-2536 1466,-1697 2195,-3810 2195,-6338 0,-2543 -729,-4669 -2195,-6366 -1465,-1697 -3285,-2549 -5452,-2549 -2154,0 -3967,852 -5439,2549 -1472,1697 -2208,3823 -2208,6366zm-7116 0c0,-2147 368,-4151 1111,-6019 736,-1874 1827,-3544 3265,-5023 1356,-1411 2937,-2494 4737,-3244 1792,-757 3680,-1132 5650,-1132 1970,0 3857,382 5664,1139 1806,756 3407,1854 4805,3278 1411,1425 2481,3067 3203,4941 729,1868 1091,3892 1091,6060 0,1812 -253,3516 -757,5111 -511,1595 -1261,3054 -2263,4376 -1411,1874 -3142,3333 -5200,4369 -2058,1043 -4239,1561 -6543,1561 -1956,0 -3831,-382 -5623,-1139 -1793,-756 -3381,-1854 -4764,-3278 -1438,-1472 -2529,-3142 -3265,-5003 -743,-1854 -1111,-3857 -1111,-5997z"/>
   <path id="3" class="fil0" d="M748324 296031l0 15908c0,2556 471,4471 1411,5739 934,1274 2359,1908 4267,1908 1833,0 3237,-593 4198,-1779 968,-1179 1452,-2903 1452,-5166l0 -16610 6175 0 0 16610c0,4178 -1070,7443 -3217,9780 -2140,2338 -5118,3504 -8928,3504 -3851,0 -6843,-1159 -8983,-3476 -2134,-2318 -3204,-5576 -3204,-9767l0 -16651 6829 0z"/>
   <path id="4" class="fil0" d="M780024 301347l-941 0 0 7729 1255 0c1744,0 3073,-334 3994,-1008 920,-675 1376,-1643 1376,-2904 0,-1322 -450,-2283 -1356,-2897 -906,-613 -2351,-920 -4328,-920zm-7852 23637l0 -28953 7450 0c2290,0 4110,164 5452,498 1343,334 2536,892 3579,1676 1077,784 1915,1766 2508,2945 593,1179 886,2426 886,3741 0,2931 -1043,5248 -3128,6966 -2079,1718 -4908,2576 -8479,2576 -368,0 -648,0 -839,-6 -184,-7 -361,-21 -518,-35l0 10592 -6911 0z"/>
   <path class="fil0" d="M679193 299791l-1309 -3468 630 0 741 2077c81,224 155,456 223,698 52,-182 125,-402 220,-659l770 -2116 604 0 -1313 3468 -566 0z"/>
   <path class="fil0" d="M679193 299791l-1309 -3468 630 0 741 2077c81,224 155,456 223,698 52,-182 125,-402 220,-659l770 -2116 604 0 -1313 3468 -566 0z"/>
   <path class="fil1" d="M154905 22811l-145871 145876c-1236,1236 -2260,2272 -3503,3500 -3394,3354 -5202,7737 -5531,12208l0 2999c274,3749 1574,7413 3838,10439 2269,3031 54787,55175 55599,55660 -3706,-5464 -8074,-9895 -8999,-18506 -1671,-15563 11227,-26463 20096,-35332 1257,-1257 12750,-13257 14062,-13670l93281 -93280c505,-2006 549,-21686 609,-25493 172,-10935 1590,-37867 -5367,-45658 -6474,-7251 -15399,339 -18214,1257z"/>
   <path class="fil1" d="M68036 257594c596,1085 16877,17069 19206,19398l58405 58405c6511,6511 12817,12817 19328,19328 7591,7591 13400,14658 25928,11222 5028,-1379 8033,-4707 11327,-8001l24371 -24370c1044,-1044 4383,-3954 4692,-5112l-138098 -138378c-1312,413 -12805,12413 -14062,13670 -8869,8869 -21767,19769 -20096,35332 925,8611 5293,13042 8999,18506z"/>
   <path class="fil1" d="M162843 14079c2815,-918 11740,-8508 18214,-1257 6957,7791 5539,34723 5367,45658 -60,3807 -104,23487 -609,25493 -54,15575 -563,29975 -562,45660l-484 22766c-885,6456 883,13390 5315,17781 2192,2172 3671,3504 6653,4832 2824,1257 5985,1686 10085,1681l69791 -1c-1593,-633 -7072,-1013 -9704,-1816 -8192,-2499 -16472,-9176 -16256,-18631 115,-5073 684,-44013 1268,-45282 0,-8922 562,-17514 560,-26429 -1,-4404 303,-8459 276,-13170l299 -9814c18,-1943 149,-1711 -911,-2731 -3161,-3043 -52165,-52482 -54121,-54005 -2321,-1807 -3687,-2658 -6400,-3685 -4139,-1565 -10279,-1563 -14313,391 -3598,1743 -5048,3144 -7675,5771 -2322,2322 -4511,4524 -6793,6788z"/>
   <path class="fil1" d="M260387 106862c-584,1269 -1153,40209 -1268,45282 -216,9455 8064,16132 16256,18631 2632,803 8111,1183 9704,1816 30849,0 60907,280 91837,280 -1014,-1513 -56370,-56510 -62817,-62956 -4278,-4278 -2163,-3432 -8053,-3431 -8791,0 -39442,-468 -45659,378z"/>
  </g>
 </g>
</svg>
