<?xml version="1.0" encoding="UTF-8"?>
<!DOCTYPE svg PUBLIC "-//W3C//DTD SVG 1.0//EN" "http://www.w3.org/TR/2001/REC-SVG-20010904/DTD/svg10.dtd">
<!-- Creator: CorelDRAW X8 -->
<svg xmlns="http://www.w3.org/2000/svg" xml:space="preserve" width="100%" height="100%" version="1.0" shape-rendering="geometricPrecision" text-rendering="geometricPrecision" image-rendering="optimizeQuality" fill-rule="evenodd" clip-rule="evenodd"
viewBox="0 0 833427 347068"
 xmlns:xlink="http://www.w3.org/1999/xlink">
 <g id="Слой_x0020_1">
  <metadata id="CorelCorpID_0Corel-Layer"/>
  <path fill="#1F1B20" fill-rule="nonzero" d="M219747 249415l7080 0c3388,0 6073,-754 8019,-2245 1946,-1507 2918,-3556 2918,-6178 0,-2561 -955,-4535 -2851,-5936 -1896,-1402 -4596,-2095 -8086,-2095l-7080 0 0 16454zm0 -27121l5654 0c3338,0 5939,-663 7834,-1974 1879,-1311 2819,-3164 2819,-5544 0,-2396 -889,-4144 -2684,-5259 -1778,-1130 -4563,-1687 -8372,-1687l-5251 0 0 14464zm-15500 38692l0 -64005 22027 0c8304,0 14561,1356 18806,4084 4244,2727 6374,6765 6374,12128 0,3270 -973,6042 -2902,8317 -1946,2291 -4865,4053 -8775,5319 4346,889 7734,2697 10201,5454 2466,2758 3691,6118 3691,10080 0,6148 -2533,10788 -7600,13922 -5067,3134 -12566,4701 -22496,4701l-19326 0z"/>
  <path id="1" fill="#1F1B20" fill-rule="nonzero" d="M282036 196981l0 35167c0,5650 1158,9884 3473,12686 2298,2818 5805,4219 10502,4219 4513,0 7969,-1311 10334,-3933 2381,-2606 3573,-6418 3573,-11420l0 -36719 15199 0 0 36719c0,9236 -2634,16453 -7919,21621 -5267,5168 -12598,7744 -21975,7744 -9479,0 -16844,-2561 -22112,-7684 -5251,-5123 -7884,-12325 -7884,-21591l0 -36809 16809 0z"/>
  <path id="2" fill="#1F1B20" fill-rule="nonzero" d="M337515 242906c4378,2410 8103,4083 11172,5062 3054,964 6039,1447 8959,1447 2936,0 5301,-588 7096,-1748 1779,-1160 2667,-2652 2667,-4475 0,-2607 -3171,-5560 -9528,-8814 -1023,-528 -1812,-950 -2365,-1236l-4816 -2441c-4679,-2380 -8152,-5077 -10400,-8076 -2265,-2998 -3389,-6403 -3389,-10200 0,-5153 2164,-9372 6492,-12671 4311,-3300 9898,-4942 16742,-4942 2534,0 5268,271 8204,798 2953,528 6224,1356 9831,2471l0 14992c-3440,-1929 -6694,-3420 -9781,-4475 -3086,-1055 -5704,-1582 -7867,-1582 -2400,0 -4278,467 -5654,1386 -1375,919 -2063,2185 -2063,3767 0,1115 402,2154 1224,3119 822,979 2047,1853 3690,2652l8355 4143c6996,3480 11693,6690 14109,9628 2416,2953 3624,6433 3624,10471 0,6238 -2366,11286 -7097,15128 -4748,3842 -11022,5755 -18856,5755 -2651,0 -5536,-256 -8657,-753 -3103,-497 -6542,-1281 -10267,-2335l-1425 -17071z"/>
  <path id="3" fill="#1F1B20" fill-rule="nonzero" d="M390342 260986l14796 -66084 1225 0 26892 41675 25365 -41675 1275 0 14898 66084 -16173 0 -6039 -29230 -19125 31580 -1140 0 -20534 -32017 -6258 29667 -15182 0z"/>
  <path id="4" fill="#1F1B20" fill-rule="nonzero" d="M500643 240646l18722 0 -9243 -20040 -9479 20040zm-26673 20340l36353 -65993 1074 0 35548 65993 -17799 0 -4513 -9311 -28921 0 -4614 9311 -17128 0z"/>
  <path id="5" fill="#1F1B20" fill-rule="nonzero" d="M571589 208643l-2802 0 0 17719 3591 0c4294,0 7566,-783 9830,-2335 2265,-1552 3389,-3797 3389,-6705 0,-3059 -1091,-5259 -3289,-6630 -2196,-1371 -5770,-2049 -10719,-2049zm-19309 52343l0 -64005 18320 0c5871,0 10417,347 13655,1040 3238,693 6090,1838 8590,3465 2650,1703 4713,3812 6173,6329 1459,2516 2181,5168 2181,7955 0,4038 -1141,7564 -3423,10592 -2281,3029 -5569,5394 -9864,7112l21742 27512 -19427 0 -19024 -25132 -2416 0 0 25132 -16507 0z"/>
  <path id="6" fill="#1F1B20" fill-rule="nonzero" d="M616415 260986l0 -64005 16809 0 0 27859 23537 -27859 20249 0 -26876 30451 28989 33554 -20534 0 -25365 -29486 0 29486 -16809 0z"/>
  <path id="7" fill="#1F1B20" fill-rule="nonzero" d="M684979 260986l0 -64005 43885 0 0 13199 -27379 0 0 11572 23453 0 0 13108 -23453 0 0 12656 27781 0 0 13470 -44287 0z"/>
  <path id="8" fill="#1F1B20" fill-rule="nonzero" d="M756729 260986l0 -50625 -22647 0 0 -13380 62205 0 0 13380 -22547 0 0 50625 -17011 0z"/>
  <path fill="#C22C29" fill-rule="nonzero" d="M678914 294080l0 14074c-1943,975 -3838,1704 -5678,2195 -1847,497 -3632,743 -5364,743 -4409,0 -8063,-1452 -10973,-4362 -2910,-2911 -4362,-6584 -4362,-11015 0,-4477 1472,-8178 4423,-11102 2952,-2931 6680,-4396 11199,-4396 1704,0 3326,231 4873,702 1540,463 3026,1172 4450,2112l-742 7246c-1343,-1357 -2679,-2352 -4008,-2979 -1336,-634 -2733,-947 -4199,-947 -2596,0 -4743,865 -6447,2603 -1704,1738 -2556,3912 -2556,6516 0,2747 825,4982 2467,6720 1643,1738 3762,2604 6352,2604 600,0 1207,-55 1820,-157 614,-109 1247,-259 1915,-463l0 -4206 -5479 0 0 -5888 12309 0z"/>
  <path id="1" fill="#C22C29" fill-rule="nonzero" d="M692490 286473l-1138 0 0 8016 1459 0c1744,0 3073,-355 3994,-1057 920,-702 1376,-1717 1376,-3033 0,-1383 -443,-2378 -1336,-2999 -892,-620 -2344,-927 -4355,-927zm-7845 23678l0 -28953 7443 0c2386,0 4233,157 5548,470 1315,314 2474,832 3490,1568 1077,770 1915,1724 2508,2863 593,1138 886,2337 886,3598 0,1827 -464,3422 -1390,4792 -927,1370 -2263,2440 -4008,3217l8833 12445 -7893 0 -7729 -11369 -981 0 0 11369 -6707 0z"/>
  <path id="2" fill="#C22C29" fill-rule="nonzero" d="M716018 295675c0,2515 736,4627 2208,6324 1472,1698 3285,2550 5439,2550 2167,0 3987,-846 5452,-2536 1466,-1697 2195,-3810 2195,-6338 0,-2543 -729,-4669 -2195,-6366 -1465,-1697 -3285,-2549 -5452,-2549 -2154,0 -3967,852 -5439,2549 -1472,1697 -2208,3823 -2208,6366zm-7116 0c0,-2147 368,-4151 1111,-6019 736,-1874 1827,-3544 3265,-5023 1356,-1411 2937,-2494 4737,-3244 1792,-757 3680,-1132 5650,-1132 1970,0 3857,382 5664,1139 1806,756 3407,1854 4805,3278 1411,1425 2481,3067 3203,4941 729,1868 1091,3892 1091,6060 0,1812 -253,3516 -757,5111 -511,1595 -1261,3054 -2263,4376 -1411,1874 -3142,3333 -5200,4369 -2058,1043 -4239,1561 -6543,1561 -1956,0 -3831,-382 -5623,-1139 -1793,-756 -3381,-1854 -4764,-3278 -1438,-1472 -2529,-3142 -3265,-5003 -743,-1854 -1111,-3857 -1111,-5997z"/>
  <path id="3" fill="#C22C29" fill-rule="nonzero" d="M749789 281198l0 15908c0,2556 471,4471 1411,5739 934,1274 2359,1908 4267,1908 1833,0 3237,-593 4198,-1779 968,-1179 1452,-2903 1452,-5166l0 -16610 6175 0 0 16610c0,4178 -1070,7443 -3217,9780 -2140,2338 -5118,3504 -8928,3504 -3851,0 -6843,-1159 -8983,-3476 -2134,-2318 -3204,-5576 -3204,-9767l0 -16651 6829 0z"/>
  <path id="4" fill="#C22C29" fill-rule="nonzero" d="M781489 286514l-941 0 0 7729 1255 0c1744,0 3073,-334 3994,-1008 920,-675 1376,-1643 1376,-2904 0,-1322 -450,-2283 -1356,-2897 -906,-613 -2351,-920 -4328,-920zm-7852 23637l0 -28953 7450 0c2290,0 4110,164 5452,498 1343,334 2536,892 3579,1676 1077,784 1915,1766 2508,2945 593,1179 886,2426 886,3741 0,2931 -1043,5248 -3128,6966 -2079,1718 -4908,2576 -8479,2576 -368,0 -648,0 -839,-6 -184,-7 -361,-21 -518,-35l0 10592 -6911 0z"/>
  <path fill="#C22C29" d="M159679 341461l-154042 -154042c-7475,-7475 -7475,-19707 0,-27182l31715 -31716 181225 181225 -31716 31715c-7475,7475 -19707,7475 -27182,0z"/>
  <path fill="#C5C6C6" d="M5665 160164l154042 -154042c7476,-7476 19707,-7475 27183,0l31715 31715 -181225 181225 -31715 -31716c-7475,-7475 -7475,-19707 0,-27182z"/>
  <path fill="#EBECEC" d="M174118 108920l114554 -447 64965 64965 -160297 -445c-10571,-30 -19222,-8650 -19222,-19222l0 -44851z"/>
  <path fill="#FF4845" d="M237561 173197c0,-9974 0,-19947 0,-29921 -1901,21163 9756,29997 30460,29914l-30460 7z"/>
  <path fill="#FF4845" d="M237680 173082l2785 -114395 -53792 -53812 -3490 -2479 -3566 -1520 -3574 -700 -2436 153684c-162,10246 8650,19222 19222,19222l44851 0z"/>
  <path fill="#FF4845" d="M176043 176c-12459,-1541 -16876,7396 -24318,13973 8774,-6009 14587,-5701 17962,-1917 5669,6357 5652,22424 5598,35775l758 -47831z"/>
  <path fill="#C5C6C6" d="M37359 219056c7053,7053 19648,19950 26015,26100 -14885,-14203 -21634,-30476 -1230,-50859l-24785 24759z"/>
  <path fill="#B2B3B3" fill-rule="nonzero" stroke="#B2B3B3" stroke-width="762" d="M810275 179282l0 -15972 7079 0c1424,0 2506,145 3246,431 740,286 1331,792 1773,1517 443,725 662,1528 662,2405 0,1134 -368,2090 -1100,2867 -733,777 -1863,1268 -3395,1480 562,267 985,535 1275,795 618,566 1201,1276 1748,2127l2762 4350 -2640 0 -2111 -3324c-614,-963 -1123,-1695 -1521,-2205 -401,-509 -758,-862 -1074,-1067 -313,-200 -636,-342 -963,-423 -238,-49 -629,-75 -1175,-75l-2447 0 0 7094 -2119 0zm2119 -8923l4536 0c967,0 1718,-100 2261,-301 543,-197 955,-517 1234,-959 283,-439 424,-915 424,-1432 0,-755 -271,-1379 -818,-1866 -547,-487 -1409,-729 -2588,-729l-5049 0 0 5287z"/>
  <path fill="#C22C29" d="M159679 341461l-154042 -154042c-7475,-7475 -7475,-19707 0,-27182l31715 -31716 181225 181225 -31716 31715c-7475,7475 -19707,7475 -27182,0z"/>
  <path fill="#C5C6C6" d="M5607 160212l154042 -154042c7476,-7476 19707,-7475 27183,0l31715 31715 -156523 156523c-20326,20353 -13577,36608 1292,50796 -6367,-6150 -18962,-19047 -26015,-26100l8 -7 -31702 -31703c-7475,-7475 -7475,-19707 0,-27182z"/>
  <path fill="#EBECEC" d="M174118 108920l114554 -447 64965 64965 -160297 -445c-10571,-30 -19222,-8650 -19222,-19222l0 -44851z"/>
  <path fill="#FF4845" d="M237561 173197c0,-9974 0,-19947 0,-29921 -1901,21163 9756,29997 30460,29914l-30460 7z"/>
  <path fill="#FF4845" d="M237680 173082l2785 -114395 -53792 -53812 -3490 -2479 -3566 -1520 -3574 -700 -2436 153684c-162,10246 8650,19222 19222,19222l44851 0z"/>
  <path fill="#FF4845" d="M176043 176c-12459,-1541 -16876,7396 -24318,13973 8774,-6009 14587,-5701 17962,-1917 5669,6357 5652,22424 5598,35775l758 -47831z"/>
  <circle fill="none" stroke="#B2B3B3" stroke-width="2500" cx="815971" cy="171296" r="16207"/>
   </g>
</svg>
