<?xml version="1.0" encoding="utf-8"?>
<!-- Generator: Adobe Illustrator 18.0.0, SVG Export Plug-In . SVG Version: 6.00 Build 0)  -->
<!DOCTYPE svg PUBLIC "-//W3C//DTD SVG 1.1//EN" "http://www.w3.org/Graphics/SVG/1.1/DTD/svg11.dtd">
<svg version="1.1" id="Layer_1" xmlns="http://www.w3.org/2000/svg" xmlns:xlink="http://www.w3.org/1999/xlink" x="0px" y="0px"
	 viewBox="0 0 283.5 283.5" enable-background="new 0 0 283.5 283.5" xml:space="preserve">
<polygon fill="#F7E205" points="140,44.3 190,151.4 88.7,151.4 "/>
<polygon fill="#D41A78" points="217.3,85 190,151.4 88.7,151.4 "/>
<path d="M283.5,191.3c-0.2,1.1-0.4,2.2-0.7,3.3c-1.4,4.6-4.2,8-8.4,10.2c-3,1.6-6.2,2.5-9.5,2.9c-1.7,0.2-3.5,0.3-5.2,0.3
	c-5.7,0.1-11.4,0-17.1,0c-0.3,0-0.5,0-0.8,0c0-0.7,0-1.4,0-2.1c0.8-0.1,1.7-0.2,2.5-0.3c0.5-0.1,0.9-0.1,1.3-0.3
	c1-0.4,1.6-1.1,1.7-2.1c0.1-0.4,0.1-0.7,0.1-1.1c0-8.6,0-17.1,0-25.6c0-2.4-0.6-3.2-2.9-3.7c-0.9-0.2-1.7-0.3-2.6-0.5
	c0-0.7,0-1.4,0-2.1c0.2,0,0.4-0.1,0.6-0.1c6.6,0,13.2-0.1,19.8,0c4.8,0.1,9.3,1.1,13.4,3.9c4.5,3.1,7,7.3,7.6,12.7
	c0,0.2,0.1,0.4,0.1,0.5C283.5,188.6,283.5,189.9,283.5,191.3z M257,172.8c0,0.3,0,0.6,0,0.8c0,9.1,0,18.2,0,27.3c0,0.2,0,0.4,0,0.6
	c0.1,2.2,1.3,3.6,3.5,3.8c1.1,0.1,2.3,0.1,3.4,0c2.7-0.4,4.8-1.6,6.3-3.8c0.9-1.3,1.5-2.7,1.8-4.1c1.1-4.2,1.2-8.5,0.6-12.8
	c-0.4-2.5-1.1-4.9-2.5-7c-1.4-2.2-3.3-3.7-5.7-4.4C261.9,172.4,259.5,172.7,257,172.8z"/>
<path d="M0,170.3c0.3,0,0.6,0,0.9,0c6.9,0,13.7,0,20.6,0c2.7,0,5.3,0.3,7.9,1.2c0.5,0.2,1,0.4,1.4,0.6c3,1.5,4.5,3.9,4.6,7.2
	c0.2,5.5-2.6,9.3-8,11.2c-2.8,1-5.7,1.3-8.6,1.4c-1.2,0-2.4,0-3.7,0c0,0.3-0.1,0.5-0.1,0.7c0,3.2,0,6.5,0,9.7c0,1.9,0.7,2.8,2.5,3.2
	c0.8,0.2,1.7,0.3,2.5,0.5c0.2,0.1,0.4,0.1,0.5,0.1c0,0.7,0,1.4,0,2.1c-0.2,0-0.4,0.1-0.5,0.1c-6.5,0-13.1,0-19.6,0
	c-0.1,0-0.3,0-0.4,0c0-0.7,0-1.4,0-2.1c0.9-0.1,1.7-0.2,2.6-0.4c2.4-0.4,3-1.1,3-3.4c0-8.6,0-17.1,0-25.7c0-0.4-0.1-0.7-0.1-1.1
	c-0.1-1-0.6-1.7-1.5-2c-1.3-0.4-2.7-0.6-4-0.9C0,171.7,0,171,0,170.3z M15,189.1c1.7,0.1,3.3,0,4.9-0.5c2.5-0.8,4.1-2.4,4.7-5
	c0.5-2.3,0.4-4.6-0.3-6.9c-0.7-2-2-3.3-4.1-3.8c-0.6-0.2-1.3-0.3-1.9-0.3c-1.1-0.1-2.2,0-3.3,0C15,178.2,15,183.6,15,189.1z"/>
<path d="M159.1,239.3c-0.9-1.3-1.8-2.6-2.8-3.8c-1.6-2.2-3.2-4.4-4.9-6.6c-0.1,0.2-0.1,0.4-0.1,0.5c0,2.1,0,4.1,0,6.2
	c0,0.5,0.1,0.9,0.1,1.4c0.1,0.8,0.5,1.2,1.2,1.4c0.3,0.1,0.6,0.2,1,0.3c0,0.2,0,0.4,0,0.7c-1.8,0-3.5,0-5.3,0c0-0.2,0-0.4,0-0.6
	c0.3-0.1,0.5-0.2,0.7-0.2c1-0.3,1.3-0.6,1.3-1.6c0.1-1.1,0.1-2.2,0.1-3.3c0-1.2,0-2.4,0-3.6c0-2.1-0.3-2.4-2.3-3
	c0-0.1-0.1-0.2-0.1-0.3c0-0.1,0-0.2,0.1-0.4c0.6,0,1.3,0.1,1.9,0c1.4-0.3,2.3,0.4,3,1.5c1.8,2.6,3.7,5.1,5.6,7.7
	c0.1,0.2,0.3,0.3,0.5,0.6c0-0.5,0-0.8,0-1.1c0-1.6,0-3.1,0-4.6c0-0.2,0-0.3,0-0.4c0-2.2-0.1-2.4-2.3-3c0-0.2,0-0.4-0.1-0.6
	c1.8,0,3.5,0,5.3,0c0,0.2,0,0.4,0,0.6c-0.4,0.1-0.8,0.2-1.2,0.4c-0.3,0.2-0.6,0.5-0.7,0.8c-0.1,0.2-0.2,0.5-0.2,0.8
	c0,3.5,0,7.1,0,10.6C159.7,239.3,159.4,239.3,159.1,239.3z"/>
<path d="M38.5,172.3c0-0.7,0-1.4,0-2.1c6.9,0,13.8,0,20.6,0c0,0.7,0,1.3,0,2.1c-0.8,0.1-1.7,0.2-2.5,0.4c-0.5,0.1-1,0.2-1.5,0.3
	c-1.1,0.3-1.6,1.1-1.7,2.2c-0.1,0.3-0.1,0.6-0.1,0.9c0,8.1,0,16.2,0,24.3c0,0.8,0,1.5,0.1,2.2c0.3,1.9,1,2.6,2.9,2.8
	c2.7,0.3,5.5,0.3,8.2-0.2c1.1-0.2,2-0.7,2.8-1.6c1.8-2.2,3.1-4.6,4.2-7.1c0.1-0.2,0.2-0.4,0.3-0.6c0.7,0,1.3,0,2,0
	c-0.2,3.3-0.4,6.5-0.6,9.9c1.2-0.1,2.4-0.3,3.4-0.9c1.5-0.9,2.4-2.2,3-3.7c3-7.3,6-14.6,9-21.8c1.3-3,2.5-6,3.7-8.9
	c0.1-0.2,0.2-0.4,0.3-0.6c1.8,0,3.5,0,5.3,0c0.1,0.2,0.2,0.5,0.3,0.7c4.2,10.4,8.4,20.8,12.6,31.3c1,2.5,2.8,3.7,5.3,4
	c0.3,0.1,0.5,0.1,0.8,0.1c0,0.7,0,1.4,0,2.1c-6.8,0-13.6,0-20.4,0c0-0.2-0.1-0.3-0.1-0.5c0-0.5,0-1.1,0-1.6c1.1-0.2,2.1-0.3,3.1-0.5
	c0.6-0.1,1.2-0.3,1.7-0.5c0.5-0.2,0.6-0.5,0.5-1c-0.1-0.2-0.1-0.3-0.1-0.5c-1.1-2.7-2.2-5.4-3.3-8.1c-4.3,0-8.6,0-12.9,0
	c-0.3,0.7-0.6,1.4-0.8,2.1c-0.6,1.7-1.2,3.5-1.7,5.2c-0.4,1.3,0,2,1.3,2.4c1.1,0.4,2.2,0.5,3.3,0.8c0.3,0.1,0.5,0.1,0.8,0.1
	c0,0.7,0,1.4,0,2.1c-16.6,0-33.1,0-49.7,0c0-0.7,0-1.4,0-2.1c0.9-0.1,1.7-0.3,2.6-0.4c0.2-0.1,0.5-0.1,0.7-0.1
	c1.6-0.3,2.3-1.2,2.3-2.8c0-3.8,0-7.6,0-11.4c0-5,0-10,0-15c0-1.9-0.5-2.5-2.2-3.1c-0.9-0.3-1.8-0.5-2.8-0.7
	C38.8,172.4,38.6,172.4,38.5,172.3z M91.8,179.3c-0.1,0-0.1,0-0.2,0c-1.8,4.4-3.5,8.8-5.2,13.3c3.6,0,7.1,0,10.6,0
	C95.3,188.1,93.5,183.7,91.8,179.3z"/>
<path d="M198.4,172.3c0-0.7,0-1.4,0-2.1c0.2,0,0.4-0.1,0.6-0.1c7.1,0,14.2,0,21.3,0c2.7,0,5.3,0.3,7.7,1.2c0.6,0.2,1.1,0.4,1.6,0.7
	c3.2,1.6,4.6,4.3,4.4,7.8c-0.3,3.6-2,6.1-5,7.7c-1.1,0.6-2.3,1-3.5,1.5c-0.2,0.1-0.4,0.2-0.6,0.2c0.2,0.2,0.3,0.4,0.4,0.6
	c3,3.8,5.9,7.5,8.8,11.2c0.7,0.9,1.5,1.7,2.3,2.6c1.2,1.4,2.7,2,4.4,2.1c0.3,0,0.6,0.1,0.9,0.1c0,0.7,0,1.4,0,2.1
	c-0.2,0-0.4,0.1-0.6,0.1c-4.4,0-8.8,0-13.2,0c-0.5,0-0.7-0.2-0.9-0.5c-3.5-5.4-7.2-10.7-11.3-15.6c-0.6-0.7-1.2-1-2.1-0.8
	c0,0.2-0.1,0.4-0.1,0.6c0,3.6,0,7.1,0,10.6c0,1.8,0.6,2.6,2.3,3c0.9,0.3,1.8,0.4,2.8,0.6c0,0.7,0,1.3,0,2c-6.7,0-13.3,0-20,0
	c0-0.7,0-1.4,0-2.1c0.9-0.1,1.8-0.2,2.7-0.4c0.3-0.1,0.7-0.1,1-0.2c1.2-0.4,1.8-1.2,1.9-2.4c0-0.2,0-0.4,0-0.6c0-8.7,0-17.3,0-26
	c0-0.2,0-0.3,0-0.5c0-1.2-0.6-2.1-1.7-2.5c-1.1-0.4-2.2-0.6-3.3-0.9C198.7,172.4,198.6,172.4,198.4,172.3z M213.4,188.4
	c1.3-0.1,2.6-0.1,3.8-0.2c2.8-0.4,4.9-1.8,5.8-4.6c0.6-1.8,0.7-3.7,0.4-5.6c-0.4-2.6-1.9-4.2-4.4-4.9c-1.1-0.3-2.3-0.4-3.5-0.5
	c-0.7-0.1-1.4,0-2.1,0C213.4,177.9,213.4,183.1,213.4,188.4z"/>
<path d="M197.5,205.8c0,0.7,0,1.4,0,2.1c-6.8,0-13.6,0-20.4,0c0-0.7,0-1.3,0-2c0.8-0.1,1.6-0.2,2.4-0.4c0.8-0.2,1.5-0.3,2.2-0.6
	c0.7-0.3,0.8-0.5,0.6-1.2c-0.2-0.5-0.4-1-0.6-1.5c-1-2.3-1.9-4.6-2.9-6.9c-4.3,0-8.6,0-12.9,0c-0.2,0.4-0.4,0.9-0.5,1.3
	c-0.7,1.9-1.4,3.8-1.9,5.8c-0.5,1.6,0,2.3,1.6,2.8c1,0.3,2,0.4,2.9,0.6c0.3,0.1,0.5,0.1,0.8,0.1c0,0.7,0,1.4,0,2.1
	c-5.1,0-10.2,0-15.3,0c0-0.7,0-1.4,0-2.1c0.5-0.1,0.9-0.2,1.4-0.2c2.6-0.3,4.2-1.8,5.2-4.1c0.7-1.5,1.3-3,1.9-4.6
	c3.7-8.9,7.3-17.7,11-26.6c0.1-0.2,0.2-0.4,0.3-0.6c1.8,0,3.5,0,5.3,0c0.1,0.3,0.2,0.5,0.3,0.7c4.2,10.4,8.4,20.8,12.6,31.3
	c1,2.5,2.8,3.6,5.3,3.9C197,205.7,197.2,205.7,197.5,205.8z M172.4,179.2c-1.8,4.6-3.5,9-5.3,13.5c3.6,0,7.1,0,10.7,0
	C176,188.1,174.2,183.7,172.4,179.2z"/>
<path d="M151.5,197.1c0.8,0.5,1.5,0.9,2.2,1.4c0,0.1,0,0.2-0.1,0.3c-2.5,5.2-6.4,8.8-12.1,9.8c-6.7,1.3-12.9,0.1-18-4.6
	c-3.1-2.8-4.8-6.3-5.5-10.3c-0.9-4.9-0.4-9.6,2-14.1c2.9-5.5,7.5-8.7,13.5-9.9c5-1,9.7-0.4,14.2,1.9c0.1,0.1,0.2,0.1,0.4,0.2
	c1-1.4,2.3-1.8,3.9-1.4c0.1,4.5,0.2,9,0.2,13.6c-0.8,0-1.6,0-2.4,0c-0.4-1.1-0.8-2.3-1.3-3.4c-0.8-2-1.8-4-3.3-5.6
	c-2.6-2.9-5.9-3.8-9.6-2.8c-2,0.5-3.4,1.8-4.5,3.5c-1.3,1.9-2,4.1-2.4,6.3c-0.8,4.4-0.8,8.9,0.1,13.3c0.4,1.7,1,3.4,1.8,4.9
	c2.2,3.9,5.9,5.3,9.8,5.1c3.7-0.3,6.5-2.2,8.8-5C150.1,199.2,150.8,198.1,151.5,197.1z"/>
<path d="M122.3,238.6c0,0.2,0,0.4,0,0.7c-1.1,0-2.2,0-3.3,0c-0.2,0-0.4-0.3-0.5-0.5c-1.1-1.6-2.2-3.1-3.2-4.7c-0.5-0.7-1-1-1.9-0.7
	c0,0.3,0,0.7,0,1.1c0,1,0,1.9,0,2.8c0,0.9,0.2,1.1,1.1,1.2c0.2,0.1,0.5,0.1,0.7,0.1c0,0.3,0,0.4,0,0.7c-1.8,0-3.6,0-5.4,0
	c0-0.2,0-0.4,0-0.7c0.3-0.1,0.5-0.1,0.8-0.1c0.7-0.1,0.9-0.4,0.9-1c0-3.1,0-6.3,0-9.4c0-0.6-0.2-0.9-0.8-1c-0.3-0.1-0.6-0.1-0.9-0.2
	c0-0.2,0-0.4-0.1-0.6c0.2,0,0.4-0.1,0.6-0.1c1.9,0,3.7-0.1,5.6,0c0.7,0,1.3,0.2,1.9,0.4c1.1,0.4,1.8,1.1,2,2.2
	c0.2,1.3-0.1,2.4-1.2,3.2c-0.6,0.4-1.2,0.7-1.9,1c1.2,1.6,2.3,3.2,3.6,4.7c0.5,0.5,1.2,0.8,1.9,1.1
	C122.2,238.7,122.2,238.6,122.3,238.6z M113.5,227.1c0,1.9,0,3.6,0,5.4c1.4,0.2,2.7,0.1,3.5-1.2c0.6-1,0.7-2.2,0.1-3.2
	C116.2,226.7,114.8,227.1,113.5,227.1z"/>
<path d="M92.7,233.6c0,1.5,0,2.8,0,4.1c0,0.4,0.3,0.7,0.6,0.7c0.4,0.1,0.8,0.1,1.2,0.2c0,0.2,0.1,0.4,0.1,0.6c-1.9,0-3.7,0-5.5,0
	c0-0.2,0-0.4-0.1-0.6c0.2-0.1,0.4-0.1,0.6-0.1c1-0.1,1.2-0.4,1.2-1.3c0-1.5,0-2.9,0-4.4c0-1.4,0-2.9,0-4.3c0-1.3-0.2-1.4-1.4-1.6
	c-0.1,0-0.3-0.1-0.4-0.1c0-0.2,0-0.4,0-0.6c0.1-0.1,0.1-0.1,0.1-0.1c2.3,0.1,4.6-0.1,6.9,0.1c1.4,0.1,2.5,0.9,2.8,2.3
	c0.4,1.5-0.1,2.9-1.4,3.9c-1,0.8-2.1,1-3.3,1.1C93.7,233.6,93.3,233.6,92.7,233.6z M92.8,232.6c1.5,0.3,2.8-0.2,3.4-1.1
	c0.6-0.9,0.6-2.7-0.1-3.6c-0.9-1.2-2.1-0.9-3.3-0.9C92.8,228.9,92.8,230.8,92.8,232.6z"/>
<path d="M176.3,227c-0.7,0.1-1.3,0.1-1.9,0.2c-0.3,0.1-0.5,0.2-0.7,0.4c-0.4,0.6-0.8,1.2-1.1,1.9c-0.2,0.4-0.4,0.6-0.8,0.4
	c0-1.1,0-2.3,0-3.5c3.7,0,7.4,0,11.2,0c0,1.2,0,2.3,0,3.5c-0.4,0.2-0.7,0.2-0.8-0.3c-0.1-0.2-0.2-0.4-0.2-0.5
	c-1.1-1.9-1.3-2-3.6-1.9c0,0.2-0.1,0.5-0.1,0.7c0,3.1,0,6.1,0,9.2c0,1.2,0.1,1.3,1.3,1.5c0.3,0.1,0.5,0.1,0.8,0.2
	c0,0.2,0,0.4,0.1,0.6c-2.1,0-4.1,0-6.1,0c0-0.2,0-0.4,0-0.6c0.5-0.1,0.9-0.1,1.3-0.2c0.5-0.1,0.7-0.4,0.7-0.9c0-3.5,0-6.9,0-10.3
	C176.3,227.2,176.3,227.1,176.3,227z"/>
<path d="M132.1,239.2c0-0.2,0-0.4,0-0.7c0.3-0.1,0.6-0.1,0.8-0.1c0.8-0.1,1.1-0.4,1.1-1.2c0-3,0-6,0-9c0-0.8-0.2-1-1-1.3
	c-0.3-0.1-0.6-0.2-1-0.2c0-0.2,0-0.4,0-0.7c1.9,0,3.8,0,5.8,0c0,0.2,0,0.4,0,0.7c-0.3,0.1-0.6,0.1-0.9,0.2c-0.9,0.2-1,0.4-1,1.2
	c0,1.7,0,3.3,0,5c0,1.3,0,2.6,0,3.9c0,0.9,0.2,1.2,1.1,1.4c0.3,0.1,0.5,0.1,0.8,0.2c0,0.2,0,0.4,0,0.7
	C135.9,239.2,134,239.2,132.1,239.2z"/>
<polygon fill="#2897CC" points="190,151.4 61.6,85.1 88.7,151.4 "/>
</svg>
